<svg width="218" height="27" version="1.1" xmlns="http://www.w3.org/2000/svg" xmlns:xlink="http://www.w3.org/1999/xlink"><rect id="backgroundrect" width="100%" height="100%" x="0" y="0" fill="none" stroke="none"/>
    <!-- Generator: Sketch 48.1 (47250) - http://www.bohemiancoding.com/sketch -->
    <title>gen_logoHeader</title>
    <desc>Created with Sketch.</desc>
    <defs>
        <polygon id="path-1" points="1.88238764e-20 0.0548989888 1.88238764e-20 25.8295667 29.4199479 25.8295667 29.4199479 0.0548989888"/>
    </defs>
    
<g class="currentLayer" style=""><title>Layer 1</title><g id="BRAND-HEADER" stroke="none" stroke-width="1" fill="#000000" fill-rule="evenodd" class="selected" fill-opacity="1">
        <g id="gen_logoHeader" fill="#000000" fill-opacity="1">
            <g id="Page-1" fill="#000000" fill-opacity="1">
                <g id="Group-3" fill="#000000" fill-opacity="1">
                    <mask id="mask-2" fill="#F5F4F5">
                        <use xlink:href="#path-1" id="svg_1"/>
                    </mask>
                    <g id="Clip-2" fill="#000000" fill-opacity="1"/>
                    <path d="M27.077152252197266,5.337912835180759 C27.077152252197266,10.560291089117527 21.391111373901367,20.614116467535496 18.3503360748291,24.529336728155613 C17.094371795654297,22.457675732672215 14.625154495239258,20.39052752405405 12.01565170288086,18.20568446069956 C7.842530727386475,14.71159914880991 3.5273890495300293,11.09912470728159 3.2214713096618652,6.857548035681248 C3.112438201904297,5.34416226297617 3.447871208190918,4.156784810125828 4.218395233154297,3.329092539846897 C4.9510698318481445,2.5413265600800514 5.924728870391846,2.2607999220490456 6.591427803039551,2.2607999220490456 C8.682502746582031,2.2607999220490456 10.927057266235352,6.373917378485203 12.73061752319336,9.678785122931004 C14.24319076538086,12.451068677008152 15.210947036743164,14.150198735296726 16.006818771362305,14.150198735296726 C16.358572006225586,14.150198735296726 16.7839412689209,13.773501195013523 16.7839412689209,13.305494107306004 C16.7839412689209,12.138253010809422 21.175127029418945,2.7975500002503395 25.42116928100586,2.7975500002503395 C25.59096908569336,2.7975500002503395 27.077152252197266,2.869070567190647 27.077152252197266,5.337912835180759 M24.619047164916992,1.1029332056641579 C21.68487548828125,1.1029332056641579 18.059003829956055,3.9616661444306374 15.912717819213867,7.937644757330418 C13.971303939819336,3.7776573076844215 9.974231719970703,0.5568090155720711 6.704627990722656,0.5568090155720711 C2.485671281814575,0.5568090155720711 0.20917093753814697,3.8911872282624245 0.20917093753814697,7.029058255255222 C0.20917093753814697,14.834155835211277 10.365571975708008,21.168226040899754 15.821393966674805,24.570998944342136 C16.96485137939453,25.284120358526707 17.86802101135254,25.847257412970066 18.4374942779541,26.273254193365574 L18.515623092651367,26.33158091455698 L18.598264694213867,26.280198849737644 C25.701391220092773,21.86850146204233 29.629362106323242,11.732739247381687 29.629362106323242,6.413149155676365 C29.629362106323242,3.0881450548768044 27.7563533782959,1.1029332056641579 24.619047164916992,1.1029332056641579 " id="Fill-1" fill="#000000" mask="url(#mask-2)" fill-opacity="1"/>
                </g>
                <path d="M65.25957727432251,21.413615226745605 C64.57169580459595,22.203118324279785 63.51088190078735,22.911030769348145 62.50736093521118,22.911030769348145 C60.18537378311157,22.911030769348145 60.041616916656494,19.480828285217285 60.041616916656494,17.955639839172363 C60.041616916656494,16.431143760681152 60.299612522125244,12.836722373962402 62.65077066421509,12.836722373962402 C65.1161675453186,12.836722373962402 65.25957727432251,15.77739143371582 65.25957727432251,17.302233695983887 L65.25957727432251,21.413615226745605 zM87.79054498672485,11.448324203491211 C86.41443109512329,11.448324203491211 85.15291833877563,12.020139694213867 84.32162714004517,13.081835746765137 L84.32162714004517,12.497868537902832 C84.32162714004517,11.980908393859863 84.26397943496704,11.518108367919922 83.66221857070923,11.518108367919922 L81.5978798866272,11.518108367919922 C81.25411462783813,11.518108367919922 80.93847131729126,11.790302276611328 80.93847131729126,12.144085884094238 L80.93847131729126,22.23991870880127 C80.8985390663147,22.22741985321045 80.85756921768188,22.215617179870605 80.81207513809204,22.212838172912598 C79.92766046524048,22.538151741027832 78.81476068496704,22.863465309143066 77.90220880508423,22.863465309143066 C76.73201990127563,22.863465309143066 75.81912469863892,22.72111988067627 75.81912469863892,21.122673988342285 C75.81912469863892,18.141730308532715 75.90489435195923,16.02771282196045 76.16150140762329,13.128011703491211 L78.70086145401001,13.128011703491211 C79.04323816299438,12.992956161499023 79.23283624649048,12.609663009643555 79.23283624649048,12.285043716430664 C79.23283624649048,11.95973014831543 78.98594903945923,11.63476276397705 78.70086145401001,11.49901294708252 L76.27539300918579,11.49901294708252 C76.38929224014282,10.442177772521973 76.50387811660767,9.605111122131348 76.6177773475647,8.412873268127441 C76.6177773475647,8.08825397491455 76.30387353897095,7.897995948791504 75.96148920059204,7.897995948791504 L74.82011651992798,7.897995948791504 C74.4777398109436,7.897995948791504 74.24994897842407,8.196228981018066 74.13536310195923,8.548623085021973 L73.05127954483032,11.49901294708252 L71.59600305557251,11.49901294708252 C71.31091547012329,11.63476276397705 71.12965631484985,11.95973014831543 71.12965631484985,12.285043716430664 C71.12965631484985,12.609663009643555 71.28244256973267,12.992956161499023 71.59600305557251,13.128011703491211 L72.85196161270142,13.128011703491211 C72.73737573623657,15.106280326843262 72.53771448135376,17.084200859069824 72.53771448135376,19.008654594421387 C72.53771448135376,20.491141319274902 72.6272988319397,21.609776496887207 72.90578699111938,22.437121391296387 C72.19325494766235,22.67841625213623 71.41960382461548,22.89228343963623 70.73519372940063,22.89228343963623 C69.55978631973267,22.89228343963623 68.64238214492798,22.77493381500244 68.64238214492798,21.16850185394287 L68.64238214492798,18.314976692199707 C68.6614785194397,16.341917037963867 68.61599206924438,12.64924144744873 68.61599206924438,12.64924144744873 C68.59307336807251,12.057289123535156 68.71877527236938,11.550396919250488 68.04721307754517,11.547966957092285 L65.75856256484985,11.54067611694336 C65.42347955703735,11.539633750915527 65.26409387588501,11.71912956237793 65.2095742225647,11.974658966064453 C64.48593378067017,11.672259330749512 63.648043155670166,11.492764472961426 62.67924356460571,11.502832412719727 C58.522791385650635,11.545883178710938 56.68763208389282,14.361565589904785 56.68763208389282,17.983067512512207 C56.68763208389282,19.515894889831543 57.07132959365845,21.200095176696777 57.93873453140259,22.471491813659668 C57.40745782852173,22.67668056488037 56.81506967544556,22.854439735412598 55.94488763809204,22.87978458404541 C54.74135446548462,22.914849281311035 53.852076053619385,22.77493381500244 53.852076053619385,21.16850185394287 L53.852076053619385,16.29504680633545 C53.852076053619385,13.435619354248047 53.68019342422485,11.502832412719727 50.49774408340454,11.502832412719727 C48.89245843887329,11.502832412719727 47.83164072036743,12.29233455657959 46.914236545562744,13.381458282470703 C46.51282739639282,11.93855094909668 45.16554117202759,11.502832412719727 43.78943109512329,11.502832412719727 C42.24109125137329,11.502832412719727 41.23791742324829,12.210745811462402 40.40627908706665,13.108916282653809 L40.45245981216431,12.117005348205566 C40.45245981216431,11.762874603271484 40.13716745376587,11.490680694580078 39.76458215713501,11.490680694580078 L37.729063510894775,11.490680694580078 C37.356478214263916,11.490680694580078 37.04083490371704,11.762874603271484 37.04083490371704,12.117005348205566 L36.99500131607056,23.82170009613037 C36.99500131607056,24.175829887390137 37.310293674468994,24.448025703430176 37.68288278579712,24.448025703430176 L39.71839761734009,24.448025703430176 C40.091333866119385,24.448025703430176 40.40627908706665,24.175829887390137 40.40627908706665,23.82170009613037 L40.40627908706665,14.579251289367676 C41.06568765640259,13.76266860961914 41.811556339263916,13.108916282653809 42.67132043838501,13.108916282653809 C43.30225229263306,13.108916282653809 43.7321343421936,13.626571655273438 43.7321343421936,15.0420503616333 L43.7321343421936,23.82170009613037 C43.7321343421936,24.175829887390137 44.04743051528931,24.448025703430176 44.420015811920166,24.448025703430176 L46.427061557769775,24.448025703430176 C46.799646854400635,24.448025703430176 47.11493921279907,24.175829887390137 47.11493921279907,23.82170009613037 L47.11493921279907,14.579251289367676 C47.80316781997681,13.735240936279297 48.634459018707275,13.108916282653809 49.351160526275635,13.108916282653809 C50.239744663238525,13.108916282653809 50.469271183013916,13.735240936279297 50.469271183013916,15.369100570678711 L50.469271183013916,19.75267505645752 C50.469271183013916,22.693345069885254 50.84186029434204,24.490382194519043 54.68336725234985,24.490382194519043 C55.83515787124634,24.490382194519043 58.11478662490845,24.21367359161377 59.09295892715454,23.674145698547363 C59.79750680923462,24.182427406311035 60.67046594619751,24.490382194519043 61.7333664894104,24.490382194519043 C63.13794946670532,24.490382194519043 64.48558282852173,23.727959632873535 65.57486963272095,22.55690097808838 C65.97628259658813,24.000500679016113 67.6676812171936,24.490382194519043 69.47367334365845,24.490382194519043 C71.04388666152954,24.490382194519043 72.50090265274048,24.213326454162598 73.72909021377563,23.698796272277832 C74.35203790664673,24.20985507965088 75.27639245986938,24.428235054016113 76.64625024795532,24.428235054016113 C77.7751259803772,24.428235054016113 79.95752191543579,24.161248207092285 80.93847131729126,23.639775276184082 L80.93847131729126,23.82170009613037 C80.93847131729126,24.175829887390137 81.25411462783813,24.448025703430176 81.5978798866272,24.448025703430176 L83.66221857070923,24.448025703430176 C84.03480768203735,24.448025703430176 84.32162714004517,24.175829887390137 84.32162714004517,23.82170009613037 L84.32162714004517,14.579251289367676 C85.06679773330688,13.517555236816406 85.81231927871704,13.081835746765137 86.52867364883423,13.081835746765137 C87.21690607070923,13.081835746765137 87.87631464004517,13.46304702758789 88.42112970352173,14.034862518310547 C88.47842645645142,14.089370727539062 88.56453943252563,14.116799354553223 88.65065240859985,14.116799354553223 C88.82254266738892,14.116799354553223 88.99476861953735,14.007434844970703 89.02324151992798,13.844257354736328 L89.68230676651001,12.128809928894043 C89.71112298965454,12.0746488571167 89.71112298965454,12.047221183776855 89.71112298965454,12.020139694213867 C89.71112298965454,11.611848831176758 88.33536005020142,11.448324203491211 87.79054498672485,11.448324203491211 z" id="Fill-4" fill="#000000" fill-opacity="1"/>
                <path d="M123.67882776260376,23.15614414215088 C121.32766962051392,23.15614414215088 121.06967401504517,19.507561683654785 121.06967401504517,17.955639839172363 C121.06967401504517,16.431143760681152 121.35649347305298,12.836722373962402 123.73577356338501,12.836722373962402 C126.05811548233032,12.836722373962402 126.31611108779907,16.431143760681152 126.31611108779907,17.955639839172363 C126.31611108779907,19.507561683654785 126.02929162979126,23.15614414215088 123.67882776260376,23.15614414215088 M123.70730066299438,11.502832412719727 C119.55015802383423,11.502832412719727 117.71569299697876,14.361565589904785 117.71569299697876,17.983067512512207 C117.71569299697876,19.74156665802002 118.14661645889282,21.31258487701416 119.05394983291626,22.472535133361816 C118.3660683631897,22.677721977233887 117.62853479385376,22.836037635803223 116.97259759902954,22.836037635803223 C115.76871728897095,22.836037635803223 114.87978601455688,22.77493381500244 114.87978601455688,21.16850185394287 L114.87978601455688,16.29504680633545 C114.87978601455688,13.435619354248047 114.70756006240845,11.502832412719727 111.52545404434204,11.502832412719727 C109.92016839981079,11.502832412719727 108.85900354385376,12.29233455657959 107.94195032119751,13.381458282470703 C107.54053735733032,11.93855094909668 106.19290399551392,11.502832412719727 104.81714105606079,11.502832412719727 C103.26880121231079,11.502832412719727 102.26528406143188,12.210745811462402 101.43399286270142,13.108916282653809 L101.43399286270142,12.117005348205566 C101.43399286270142,11.762874603271484 101.11870050430298,11.490680694580078 100.74611139297485,11.490680694580078 L98.71058893203735,11.490680694580078 C98.33800745010376,11.490680694580078 98.02236413955688,11.762874603271484 98.02236413955688,12.117005348205566 L98.02236413955688,22.633627891540527 C97.4650444984436,22.77840518951416 96.89695978164673,22.87978458404541 96.38964319229126,22.87978458404541 C95.21389245986938,22.87978458404541 94.23954248428345,22.802361488342285 94.23954248428345,21.195929527282715 C94.23954248428345,17.92821216583252 94.38260126113892,15.247932434082031 94.69824457168579,12.06249713897705 C94.69824457168579,11.73544692993164 94.41142511367798,11.490680694580078 94.01001214981079,11.490680694580078 L92.0890908241272,11.490680694580078 C91.65920495986938,11.490680694580078 91.45849847793579,11.73544692993164 91.40120935440063,12.117005348205566 C91.11438989639282,14.240744590759277 91.02826929092407,16.975531578063965 91.02826929092407,19.045109748840332 C91.02826929092407,23.129063606262207 91.63073205947876,24.490382194519043 95.12812280654907,24.490382194519043 C95.87990045547485,24.490382194519043 97.09766626358032,24.37233829498291 98.12063074111938,24.14076519012451 C98.2421669960022,24.32581615447998 98.46231317520142,24.448025703430176 98.71058893203735,24.448025703430176 L100.74611139297485,24.448025703430176 C101.11870050430298,24.448025703430176 101.43399286270142,24.175829887390137 101.43399286270142,23.82170009613037 L101.43399286270142,14.579251289367676 C102.09339380264282,13.76266860961914 102.83892297744751,13.108916282653809 103.6986870765686,13.108916282653809 C104.32961511611938,13.108916282653809 104.7598443031311,13.626571655273438 104.7598443031311,15.0420503616333 L104.7598443031311,23.82170009613037 C104.7598443031311,24.175829887390137 105.07514429092407,24.448025703430176 105.44772577285767,24.448025703430176 L107.4544243812561,24.448025703430176 C107.82735681533813,24.448025703430176 108.14264917373657,24.175829887390137 108.14264917373657,23.82170009613037 L108.14264917373657,14.579251289367676 C108.83053064346313,13.735240936279297 109.66217279434204,13.108916282653809 110.37852716445923,13.108916282653809 C111.26745843887329,13.108916282653809 111.49698114395142,13.735240936279297 111.49698114395142,15.369100570678711 L111.49698114395142,19.75267505645752 C111.49698114395142,22.693345069885254 111.86957025527954,24.490382194519043 115.71107721328735,24.490382194519043 C116.92676019668579,24.490382194519043 119.39945459365845,24.182427406311035 120.27137231826782,23.58214282989502 C121.16551446914673,24.15673542022705 122.30028772354126,24.490382194519043 123.70730066299438,24.490382194519043 C127.8352837562561,24.490382194519043 129.67009210586548,21.631648063659668 129.67009210586548,17.983067512512207 C129.67009210586548,14.361565589904785 127.8352837562561,11.502832412719727 123.70730066299438,11.502832412719727 " id="Fill-6" fill="#000000" fill-opacity="1"/>
                <path d="M158.10519647598267,23.15614414215088 C155.7543969154358,23.15614414215088 155.49640130996704,19.507561683654785 155.49640130996704,17.955639839172363 C155.49640130996704,16.431143760681152 155.78322076797485,12.836722373962402 158.1628441810608,12.836722373962402 C160.48483514785767,12.836722373962402 160.74283075332642,16.431143760681152 160.74283075332642,17.955639839172363 C160.74283075332642,19.507561683654785 160.45636224746704,23.15614414215088 158.10519647598267,23.15614414215088 M158.1336693763733,11.502832412719727 C153.97722101211548,11.502832412719727 152.1424126625061,14.361565589904785 152.1424126625061,17.983067512512207 C152.1424126625061,19.74503803253174 152.5750756263733,21.318833351135254 153.48553705215454,22.479477882385254 C152.80667352676392,22.681193351745605 152.08407831192017,22.836037635803223 151.45488214492798,22.836037635803223 C150.27946710586548,22.836037635803223 149.30511713027954,22.802361488342285 149.30511713027954,21.195929527282715 C149.30511713027954,17.92821216583252 149.4478325843811,15.247932434082031 149.76347589492798,12.06249713897705 C149.76347589492798,11.73544692993164 149.4770073890686,11.490680694580078 149.07559442520142,11.490680694580078 L147.1546654701233,11.490680694580078 C146.7244439125061,11.490680694580078 146.52408075332642,11.73544692993164 146.4664330482483,12.117005348205566 C146.17996454238892,14.240744590759277 146.09384393692017,16.975531578063965 146.09384393692017,19.045109748840332 C146.09384393692017,20.57863140106201 146.17892694473267,21.72816562652588 146.47026300430298,22.565926551818848 C145.88133478164673,22.723549842834473 145.2719292640686,22.836037635803223 144.7201714515686,22.836037635803223 C143.51559686660767,22.836037635803223 142.62701654434204,22.77493381500244 142.62701654434204,21.16850185394287 L142.62701654434204,16.29504680633545 C142.62701654434204,13.708160400390625 142.39749383926392,11.502832412719727 139.0719780921936,11.502832412719727 C137.52398920059204,11.502832412719727 136.5204644203186,12.047221183776855 135.43083429336548,13.108916282653809 L135.43083429336548,12.117005348205566 C135.43083429336548,11.762874603271484 135.11587762832642,11.490680694580078 134.77176141738892,11.490680694580078 L132.70743036270142,11.490680694580078 C132.36331415176392,11.490680694580078 132.04837274551392,11.762874603271484 132.04837274551392,12.117005348205566 L132.04837274551392,23.82170009613037 C132.04837274551392,24.175829887390137 132.36331415176392,24.448025703430176 132.70743036270142,24.448025703430176 L134.77176141738892,24.448025703430176 C135.11587762832642,24.448025703430176 135.43083429336548,24.175829887390137 135.43083429336548,23.82170009613037 L135.43083429336548,14.579251289367676 C136.0905785560608,13.76266860961914 137.15104913711548,13.108916282653809 137.95387506484985,13.108916282653809 C138.69938898086548,13.108916282653809 139.24420404434204,13.708160400390625 139.24420404434204,15.369100570678711 L139.24420404434204,19.75267505645752 C139.24420404434204,22.693345069885254 139.6164574623108,24.490382194519043 143.45830011367798,24.490382194519043 C144.45591974258423,24.490382194519043 146.2997612953186,24.282763481140137 147.41127252578735,23.87655544281006 C148.02797174453735,24.306025505065918 148.9162163734436,24.490382194519043 150.19369745254517,24.490382194519043 C151.40834283828735,24.490382194519043 153.84076166152954,24.18312168121338 154.70018243789673,23.583184242248535 C155.59361505508423,24.157082557678223 156.72770929336548,24.490382194519043 158.1336693763733,24.490382194519043 C162.26234674453735,24.490382194519043 164.0971703529358,21.631648063659668 164.0971703529358,17.983067512512207 C164.0971703529358,14.361565589904785 162.26234674453735,11.502832412719727 158.1336693763733,11.502832412719727 " id="Fill-8" fill="#000000" fill-opacity="1"/>
                <path d="M148.40385675430298,9.475680351257324 C149.30217218399048,9.475680351257324 150.08832025527954,8.745894432067871 150.08832025527954,7.875845432281494 C150.08832025527954,7.005796432495117 149.30217218399048,6.276010513305664 148.40385675430298,6.276010513305664 C147.53367853164673,6.276010513305664 146.74753046035767,7.005796432495117 146.74753046035767,7.875845432281494 C146.74753046035767,8.745894432067871 147.53367853164673,9.475680351257324 148.40385675430298,9.475680351257324 " id="Fill-10" fill="#000000" fill-opacity="1"/>
                <path d="M93.34202814102173,9.498733520507812 C94.2403359413147,9.498733520507812 95.02649164199829,8.76894760131836 95.02649164199829,7.898898601531982 C95.02649164199829,7.0288496017456055 94.2403359413147,6.299063682556152 93.34202814102173,6.299063682556152 C92.47184991836548,6.299063682556152 91.68604516983032,7.0288496017456055 91.68604516983032,7.898898601531982 C91.68604516983032,8.76894760131836 92.47184991836548,9.498733520507812 93.34202814102173,9.498733520507812 " id="Fill-12" fill="#000000" fill-opacity="1"/>
                <path d="M179.8566460609436,22.596896171569824 C179.0882134437561,22.8402738571167 177.6929955482483,23.192667961120605 176.9811577796936,23.192667961120605 C174.84633111953735,23.192667961120605 174.07789850234985,21.325846672058105 174.07789850234985,17.94425106048584 C174.07789850234985,16.131937980651855 174.33415460586548,12.831931114196777 177.03810358047485,12.831931114196777 C177.49333429336548,12.831931114196777 177.89232110977173,12.912825584411621 179.4010796546936,13.372847557067871 C179.7708764076233,13.372847557067871 180.08513116836548,13.102736473083496 180.08513116836548,12.750689506530762 C180.08513116836548,11.884806632995605 177.43673944473267,11.587267875671387 176.35544061660767,11.587267875671387 C172.59796380996704,11.587267875671387 170.71939325332642,14.536269187927246 170.71939325332642,17.91751766204834 C170.71939325332642,21.51575756072998 172.45559930801392,24.463717460632324 176.46898126602173,24.463717460632324 C177.72181940078735,24.463717460632324 179.45802545547485,24.08493709564209 180.39799737930298,23.59818172454834 C180.4823784828186,23.46243190765381 180.5403618812561,23.328070640563965 180.5403618812561,23.192667961120605 C180.5403618812561,22.894782066345215 180.31222772598267,22.62467098236084 179.8566460609436,22.596896171569824 " id="Fill-14" fill="#000000" fill-opacity="1"/>
                <path d="M186.83720636367798,23.165831565856934 C184.5016655921936,23.165831565856934 184.24576044082642,19.541205406188965 184.24576044082642,17.999003410339355 C184.24576044082642,16.48422908782959 184.5308403968811,12.912721633911133 186.89415216445923,12.912721633911133 C189.19912958145142,12.912721633911133 189.45538568496704,16.48422908782959 189.45538568496704,17.999003410339355 C189.45538568496704,19.541205406188965 189.1713433265686,23.165831565856934 186.83720636367798,23.165831565856934 M186.86497735977173,11.587163925170898 C182.73768854141235,11.587163925170898 180.91607904434204,14.428537368774414 180.91607904434204,18.025389671325684 C180.91607904434204,21.650362968444824 182.73768854141235,24.490347862243652 186.86497735977173,24.490347862243652 C190.96414422988892,24.490347862243652 192.78610467910767,21.650362968444824 192.78610467910767,18.025389671325684 C192.78610467910767,14.428537368774414 190.96414422988892,11.587163925170898 186.86497735977173,11.587163925170898 " id="Fill-16" fill="#000000" fill-opacity="1"/>
                <path d="M167.43944025039673,21.2649507522583 C166.5744652748108,21.2649507522583 165.79283380508423,21.990221977233887 165.79283380508423,22.8554105758667 C165.79283380508423,23.72059917449951 166.5744652748108,24.446219444274902 167.43944025039673,24.446219444274902 C168.33253717422485,24.446219444274902 169.11418390274048,23.72059917449951 169.11418390274048,22.8554105758667 C169.11418390274048,21.990221977233887 168.33253717422485,21.2649507522583 167.43944025039673,21.2649507522583 " id="Fill-18" fill="#000000" fill-opacity="1"/>
                <path d="M217.00700616836548,22.293282508850098 C216.88200616836548,22.22106647491455 216.7271294593811,22.217942237854004 216.59344720840454,22.271756172180176 C215.8760552406311,22.560614585876465 215.2048363685608,22.89078998565674 213.99540948867798,22.926201820373535 C212.8009057044983,22.96092128753662 211.91787958145142,22.822047233581543 211.91787958145142,21.22915554046631 L211.91787958145142,16.395278930664062 C211.91787958145142,13.559460639953613 211.74737787246704,11.64229679107666 208.58854913711548,11.64229679107666 C207.23153924942017,11.64229679107666 206.2665581703186,12.210293769836426 205.44742059707642,13.045971870422363 C205.2588677406311,13.238659858703613 204.94183588027954,13.198039054870605 204.8112816810608,12.961953163146973 C204.25812005996704,11.962056159973145 203.1042504310608,11.64229679107666 201.92953729629517,11.64229679107666 C200.7940697669983,11.64229679107666 199.95340204238892,12.025938034057617 199.25926446914673,12.585602760314941 C198.99432611465454,12.798774719238281 198.60124444961548,12.591157913208008 198.61722040176392,12.251608848571777 C198.61722040176392,11.900257110595703 198.30401849746704,11.6304931640625 197.9342064857483,11.6304931640625 L195.91362237930298,11.6304931640625 C195.54381036758423,11.6304931640625 195.16705560684204,11.900257110595703 195.16705560684204,12.251608848571777 L195.18510675430298,23.860133171081543 C195.18510675430298,24.211485862731934 195.49832391738892,24.48159694671631 195.86813592910767,24.48159694671631 L197.88872003555298,24.48159694671631 C198.25851678848267,24.48159694671631 198.57138299942017,24.211485862731934 198.57138299942017,23.860133171081543 L198.57138299942017,14.838842391967773 C198.57138299942017,14.745101928710938 198.60368585586548,14.653098106384277 198.66409540176392,14.581230163574219 C199.29538202285767,13.824363708496094 200.0061821937561,13.235535621643066 200.81976556777954,13.235535621643066 C201.44583368301392,13.235535621643066 201.87294244766235,13.748677253723145 201.87294244766235,15.15269947052002 L201.87294244766235,23.860133171081543 C201.87294244766235,24.211485862731934 202.1857933998108,24.48159694671631 202.55560541152954,24.48159694671631 L204.54771661758423,24.48159694671631 C204.91787958145142,24.48159694671631 205.23039484024048,24.211485862731934 205.23039484024048,23.860133171081543 L205.23039484024048,14.841272354125977 C205.23039484024048,14.746143341064453 205.26373529434204,14.652402877807617 205.32553339004517,14.579841613769531 C205.98910760879517,13.801102638244629 206.7714409828186,13.235535621643066 207.45028924942017,13.235535621643066 C208.3322777748108,13.235535621643066 208.56007623672485,13.85665225982666 208.56007623672485,15.476970672607422 L208.56007623672485,19.82478618621826 C208.56007623672485,22.7411527633667 208.92987298965454,24.523261070251465 212.74325799942017,24.523261070251465 C214.22284173965454,24.523261070251465 217.58099603652954,24.06428050994873 217.58099603652954,23.173399925231934 C217.58099603652954,22.956408500671387 217.33827447891235,22.484929084777832 217.00700616836548,22.293282508850098 " id="Fill-20" fill="#000000" fill-opacity="1"/>
            </g>
        </g>
    </g></g></svg>