<svg width="62.488" height="12.094" xmlns="http://www.w3.org/2000/svg" style=""><rect id="backgroundrect" width="100%" height="100%" x="0" y="0" fill="none" stroke="none"/>
  
<g class="currentLayer" style=""><title>Layer 1</title><g style="" id="svg_1" class="selected" fill="#000000" fill-opacity="1">
    <path class="cls-1" d="M4.889140938779974,1.8945400367056209 C4.15344355138825,1.8945400367056209 3.9407400463012436,2.2208385789456315 3.9407400463012436,2.940525474715969 L3.9407400463012436,4.134412816725671 L5.903105393547548,4.134412816725671 L5.706412380081929,6.063233258326818 L3.941502007502436,6.063233258326818 L3.941502007502436,11.916786721019662 L1.5865102679269967,11.916786721019662 L1.5865102679269967,6.063233258326818 L-0.000002303112296431209,6.063233258326818 L-0.000002303112296431209,4.134412816725671 L1.5865102679269967,4.134412816725671 L1.5865102679269967,2.973307255860391 C1.5865102679269967,1.027714361436665 2.3709999280845295,0.00002646195082434133 4.559792225136107,0.00002646195082434133 C5.0184405197743445,-0.0010414470303885537 5.476782866632561,0.02617627239601461 5.9320762053864655,0.0816005158610551 L5.9320762053864655,1.8968270836087413 z" style="" stroke-width="0" id="svg_2" fill="#000000" fill-opacity="1"/>
    <path class="cls-1" d="M6.066254664667554,7.780114482641238 C6.066254664667554,5.605805264910032 7.096230774356059,3.9682145375013533 9.254528337166334,3.9682145375013533 C10.431642063053914,3.9682145375013533 11.150568160922603,4.573544434917494 11.494399953886841,5.325249987331517 L11.494399953886841,4.134412816725671 L13.750282062228735,4.134412816725671 L13.750282062228735,11.916786721019662 L11.494399953886841,11.916786721019662 L11.494399953886841,10.739674158431626 C11.167340613745182,11.492142835346385 10.431642063053914,12.080700279939947 9.254528337166334,12.080700279939947 C7.096230774356059,12.080700279939947 6.066254664667554,10.445394272835301 6.066254664667554,8.268800334800062 zM8.4204844430418,8.303869162847604 C8.4204844430418,9.464211599212149 8.845130655314165,10.232689604448751 9.94066916399197,10.232689604448751 C10.90584250929328,10.232689604448751 11.396054610453575,9.529775161500993 11.396054610453575,8.418226161201801 L11.396054610453575,7.636786672448125 C11.396054610453575,6.525235345549845 10.90584250929328,5.822323229201174 9.94066916399197,5.822323229201174 C8.845130655314165,5.822323229201174 8.4204844430418,6.590801234437777 8.4204844430418,7.751143670802321 z" style="" stroke-width="0" id="svg_3" fill="#000000" fill-opacity="1"/>
    <path class="cls-1" d="M18.655436959041936,3.9705015844044738 C19.570292945875508,3.9705015844044738 20.437118621144464,4.167194597870093 20.91131906738383,4.493493140110104 L20.38832518507911,6.161580928359172 C19.897810626037426,5.927988053364061 19.361857586814722,5.805092436358336 18.818585066862397,5.801737480474003 C17.54312250764292,5.801737480474003 16.988873093195252,6.537433704566183 16.988873093195252,7.796886935463817 L16.988873093195252,8.254314928880603 C16.988873093195252,9.51376583317915 17.544648756644392,10.24946205727133 18.818585066862397,10.24946205727133 C19.361857586814722,10.246032650216193 19.897810626037426,10.123211484381272 20.38832518507911,9.889618609386162 L20.91131906738383,11.556943273134493 C20.437118621144464,11.88400493987524 19.571053743777156,12.080700279939947 18.655436959041936,12.080700279939947 C15.891809498815519,12.080700279939947 14.633119392418621,10.59253305233392 14.633119392418621,8.205521492815251 L14.633119392418621,7.845678044930082 C14.633119392418621,5.458666485411413 15.891809498815519,3.9705015844044738 18.655436959041936,3.9705015844044738 z" style="" stroke-width="0" id="svg_4" fill="#000000" fill-opacity="1"/>
    <path class="cls-1" d="M21.22160595470291,8.322928662573304 L21.22160595470291,7.636786672448125 C21.22160595470291,5.429695673572496 22.480296061099807,3.977362725113835 25.047991305762253,3.977362725113835 C27.46778697302443,3.977362725113835 28.530544863857358,5.448755173298196 28.530544863857358,7.607052736108471 L28.530544863857358,8.849733514183526 L23.575074935175508,8.849733514183526 C23.62462916914251,9.912491405016453 24.098829615381874,10.386691851255819 25.404786908842652,10.386691851255819 C26.288385036934187,10.386691851255819 27.22001347659034,10.20676896401369 27.906916264617166,9.912491405016453 L28.337662819697243,11.524924616490807 C27.716321267360172,11.852747081133202 26.440861034739783,12.097472732762526 25.31330037951966,12.097472732762526 C22.33315728160119,12.09670960826179 21.22160595470291,10.610068629657235 21.22160595470291,8.322928662573304 zM23.575835733077156,7.3089642078057295 L26.421038410513347,7.3089642078057295 L26.421038410513347,7.113031992241758 C26.421038410513347,6.262978769795382 26.077967415450757,5.588272014185804 25.04875443026299,5.588272014185804 C23.985233414929326,5.589032812087453 23.575835733077156,6.259928598391525 23.575835733077156,7.305914036401873 z" style="" stroke-width="0" id="svg_5" fill="#000000" fill-opacity="1"/>
    <path class="cls-1" d="M37.25750636472549,8.271087381703182 C37.25750636472549,10.445394272835301 36.211523253314226,12.082987326843067 34.05551041080798,12.082987326843067 C32.87839552162086,12.082987326843067 32.06112640691799,11.494429882249506 31.734062413578158,10.741961205334746 L31.734062413578158,11.919073767922782 L29.510964412979774,11.919073767922782 L29.510964412979774,0.226453411756097 L31.86519419135402,0.012986782168354694 L31.86519419135402,5.212419237978793 C32.20826518641661,4.5262772478536135 32.96073386333137,3.9697384599037377 34.05627353530872,3.9697384599037377 C36.214571098118995,3.9697384599037377 37.25826948922622,5.605044467008383 37.25826948922622,7.781638405043623 zM34.90327658635124,7.731321046575886 C34.90327658635124,6.635781374598537 34.478630374078875,5.818509933296582 33.350308920957104,5.818509933296582 C32.38513790225488,5.818509933296582 31.862146346549252,6.504651923421761 31.862146346549252,7.616964048221689 L31.862146346549252,8.434235489523644 C31.862146346549252,9.545786816421924 32.38513790225488,10.232689604448751 33.350308920957104,10.232689604448751 C34.478630374078875,10.232689604448751 34.90327658635124,9.415418163146796 34.90327658635124,8.319878491169447 z" style="" stroke-width="0" id="svg_6" fill="#000000" fill-opacity="1"/>
    <path class="cls-1" d="M38.045046196286876,8.221530821137094 L38.045046196286876,7.829668716608239 C38.045046196286876,5.589032812087453 39.320506428907265,3.9705015844044738 41.92022498341157,3.9705015844044738 C44.5199388847177,3.9705015844044738 45.79616224183883,5.589032812087453 45.79616224183883,7.829668716608239 L45.79616224183883,8.221530821137094 C45.79616224183883,10.461403601157144 44.52070200921844,12.080700279939947 41.92098810791231,12.080700279939947 C39.321269553408,12.080700279939947 38.045046196286876,10.461403601157144 38.045046196286876,8.221530821137094 zM43.44117399216202,7.665757484287042 C43.44117399216202,6.635781374598537 43.01576465538892,5.818509933296582 41.91641401410607,5.818509933296582 C40.81705871962504,5.818509933296582 40.39546500535562,6.635781374598537 40.39546500535562,7.665757484287042 L40.39546500535562,8.385444380057379 C40.39546500535562,9.415418163146796 40.82086968893054,10.232689604448751 41.91641401410607,10.232689604448751 C43.011953686083416,10.232689604448751 43.44117399216202,9.415418163146796 43.44117399216202,8.385444380057379 z" style="" stroke-width="0" id="svg_7" fill="#000000" fill-opacity="1"/>
    <path class="cls-1" d="M46.57912797959398,8.221530821137094 L46.57912797959398,7.829668716608239 C46.57912797959398,5.589032812087453 47.85458821221437,3.9705015844044738 50.45430676671867,3.9705015844044738 C53.054020668024805,3.9705015844044738 54.329480900645194,5.589032812087453 54.329480900645194,7.829668716608239 L54.329480900645194,8.221530821137094 C54.329480900645194,10.461403601157144 53.054020668024805,12.080700279939947 50.45430676671867,12.080700279939947 C47.85458821221437,12.080700279939947 46.57912797959398,10.461403601157144 46.57912797959398,8.221530821137094 zM51.97525112227095,7.665757484287042 C51.97525112227095,6.635781374598537 51.54984643869602,5.818509933296582 50.45430676671867,5.818509933296582 C49.358767094741324,5.818509933296582 48.93412088246896,6.635781374598537 48.93412088246896,7.665757484287042 L48.93412088246896,8.385444380057379 C48.93412088246896,9.415418163146796 49.358767094741324,10.232689604448751 50.45430676671867,10.232689604448751 C51.54984643869602,10.232689604448751 51.97525112227095,9.415418163146796 51.97525112227095,8.385444380057379 z" style="" stroke-width="0" id="svg_8" fill="#000000" fill-opacity="1"/>
    <path class="cls-1" d="M57.56654800920933,7.845678044930082 L59.88799600643915,4.134412816725671 L62.38936456431202,4.134412816725671 L59.953559568728,7.976807496106858 L62.487709907745284,11.916786721019662 L59.98634134987242,11.916786721019662 L57.56654800920933,8.104886775879777 L57.56654800920933,11.916786721019662 L55.211555106334345,11.916786721019662 L55.211555106334345,0.226453411756097 L57.56654800920933,0.012986782168354694 z" style="" stroke-width="0" id="svg_9" fill="#000000" fill-opacity="1"/>
  </g></g></svg>